<mxfile host="app.diagrams.net" agent="Mozilla/5.0 (X11; Ubuntu; Linux x86_64; rv:135.0) Gecko/20100101 Firefox/135.0" version="26.1.3">
  <diagram name="PÃ¡gina-1" id="9n4RbyVgQEtJ9bC1mB3g">
    <mxGraphModel dx="1058" dy="589" grid="1" gridSize="10" guides="1" tooltips="1" connect="1" arrows="1" fold="1" page="1" pageScale="1" pageWidth="827" pageHeight="1169" math="0" shadow="0">
      <root>
        <mxCell id="0" />
        <mxCell id="1" parent="0" />
        <mxCell id="uIEQiHcA2IHjSNty9eRO-1" value="&lt;div style=&quot;background-color: rgb(30, 31, 34); color: rgb(188, 190, 196);&quot;&gt;&lt;pre style=&quot;font-family:&#39;JetBrains Mono&#39;,monospace;font-size:9,8pt;&quot;&gt;&lt;span style=&quot;color: rgb(207, 142, 109);&quot;&gt;int&lt;/span&gt;[][] dias = &lt;span style=&quot;color: rgb(207, 142, 109);&quot;&gt;new int&lt;/span&gt;[&lt;span style=&quot;color: rgb(42, 172, 184);&quot;&gt;3&lt;/span&gt;][&lt;span style=&quot;color: rgb(42, 172, 184);&quot;&gt;3&lt;/span&gt;];&lt;/pre&gt;&lt;/div&gt;" style="text;whiteSpace=wrap;html=1;" vertex="1" parent="1">
          <mxGeometry x="592.5" y="50" width="223" height="50" as="geometry" />
        </mxCell>
        <mxCell id="uIEQiHcA2IHjSNty9eRO-2" value="&lt;div style=&quot;background-color:#1e1f22;color:#bcbec4&quot;&gt;&lt;pre style=&quot;font-family:&#39;JetBrains Mono&#39;,monospace;font-size:9,8pt;&quot;&gt;&lt;span style=&quot;color:#cf8e6d;&quot;&gt;int&lt;/span&gt;[] dias = &lt;span style=&quot;color:#cf8e6d;&quot;&gt;new int&lt;/span&gt;[&lt;span style=&quot;color:#2aacb8;&quot;&gt;3&lt;/span&gt;];&lt;/pre&gt;&lt;/div&gt;" style="text;whiteSpace=wrap;html=1;" vertex="1" parent="1">
          <mxGeometry x="90" y="40" width="190" height="50" as="geometry" />
        </mxCell>
        <mxCell id="uIEQiHcA2IHjSNty9eRO-3" value="" style="shape=table;startSize=0;container=1;collapsible=0;childLayout=tableLayout;" vertex="1" parent="1">
          <mxGeometry x="95" y="120" width="180" height="40" as="geometry" />
        </mxCell>
        <mxCell id="uIEQiHcA2IHjSNty9eRO-4" value="" style="shape=tableRow;horizontal=0;startSize=0;swimlaneHead=0;swimlaneBody=0;strokeColor=inherit;top=0;left=0;bottom=0;right=0;collapsible=0;dropTarget=0;fillColor=none;points=[[0,0.5],[1,0.5]];portConstraint=eastwest;" vertex="1" parent="uIEQiHcA2IHjSNty9eRO-3">
          <mxGeometry width="180" height="40" as="geometry" />
        </mxCell>
        <mxCell id="uIEQiHcA2IHjSNty9eRO-5" value="0" style="shape=partialRectangle;html=1;whiteSpace=wrap;connectable=0;strokeColor=inherit;overflow=hidden;fillColor=none;top=0;left=0;bottom=0;right=0;pointerEvents=1;" vertex="1" parent="uIEQiHcA2IHjSNty9eRO-4">
          <mxGeometry width="60" height="40" as="geometry">
            <mxRectangle width="60" height="40" as="alternateBounds" />
          </mxGeometry>
        </mxCell>
        <mxCell id="uIEQiHcA2IHjSNty9eRO-6" value="0" style="shape=partialRectangle;html=1;whiteSpace=wrap;connectable=0;strokeColor=inherit;overflow=hidden;fillColor=none;top=0;left=0;bottom=0;right=0;pointerEvents=1;" vertex="1" parent="uIEQiHcA2IHjSNty9eRO-4">
          <mxGeometry x="60" width="60" height="40" as="geometry">
            <mxRectangle width="60" height="40" as="alternateBounds" />
          </mxGeometry>
        </mxCell>
        <mxCell id="uIEQiHcA2IHjSNty9eRO-7" value="0" style="shape=partialRectangle;html=1;whiteSpace=wrap;connectable=0;strokeColor=inherit;overflow=hidden;fillColor=none;top=0;left=0;bottom=0;right=0;pointerEvents=1;" vertex="1" parent="uIEQiHcA2IHjSNty9eRO-4">
          <mxGeometry x="120" width="60" height="40" as="geometry">
            <mxRectangle width="60" height="40" as="alternateBounds" />
          </mxGeometry>
        </mxCell>
        <mxCell id="uIEQiHcA2IHjSNty9eRO-21" value="" style="shape=table;startSize=0;container=1;collapsible=0;childLayout=tableLayout;" vertex="1" parent="1">
          <mxGeometry x="614" y="140" width="180" height="40" as="geometry" />
        </mxCell>
        <mxCell id="uIEQiHcA2IHjSNty9eRO-22" value="" style="shape=tableRow;horizontal=0;startSize=0;swimlaneHead=0;swimlaneBody=0;strokeColor=inherit;top=0;left=0;bottom=0;right=0;collapsible=0;dropTarget=0;fillColor=none;points=[[0,0.5],[1,0.5]];portConstraint=eastwest;" vertex="1" parent="uIEQiHcA2IHjSNty9eRO-21">
          <mxGeometry width="180" height="40" as="geometry" />
        </mxCell>
        <mxCell id="uIEQiHcA2IHjSNty9eRO-23" value="&amp;amp;" style="shape=partialRectangle;html=1;whiteSpace=wrap;connectable=0;strokeColor=inherit;overflow=hidden;fillColor=none;top=0;left=0;bottom=0;right=0;pointerEvents=1;" vertex="1" parent="uIEQiHcA2IHjSNty9eRO-22">
          <mxGeometry width="60" height="40" as="geometry">
            <mxRectangle width="60" height="40" as="alternateBounds" />
          </mxGeometry>
        </mxCell>
        <mxCell id="uIEQiHcA2IHjSNty9eRO-24" value="&amp;amp;" style="shape=partialRectangle;html=1;whiteSpace=wrap;connectable=0;strokeColor=inherit;overflow=hidden;fillColor=none;top=0;left=0;bottom=0;right=0;pointerEvents=1;" vertex="1" parent="uIEQiHcA2IHjSNty9eRO-22">
          <mxGeometry x="60" width="60" height="40" as="geometry">
            <mxRectangle width="60" height="40" as="alternateBounds" />
          </mxGeometry>
        </mxCell>
        <mxCell id="uIEQiHcA2IHjSNty9eRO-25" value="&amp;amp;" style="shape=partialRectangle;html=1;whiteSpace=wrap;connectable=0;strokeColor=inherit;overflow=hidden;fillColor=none;top=0;left=0;bottom=0;right=0;pointerEvents=1;" vertex="1" parent="uIEQiHcA2IHjSNty9eRO-22">
          <mxGeometry x="120" width="60" height="40" as="geometry">
            <mxRectangle width="60" height="40" as="alternateBounds" />
          </mxGeometry>
        </mxCell>
        <mxCell id="uIEQiHcA2IHjSNty9eRO-31" value="" style="shape=table;startSize=0;container=1;collapsible=0;childLayout=tableLayout;" vertex="1" parent="1">
          <mxGeometry x="614" y="250" width="180" height="40" as="geometry" />
        </mxCell>
        <mxCell id="uIEQiHcA2IHjSNty9eRO-32" value="" style="shape=tableRow;horizontal=0;startSize=0;swimlaneHead=0;swimlaneBody=0;strokeColor=inherit;top=0;left=0;bottom=0;right=0;collapsible=0;dropTarget=0;fillColor=none;points=[[0,0.5],[1,0.5]];portConstraint=eastwest;" vertex="1" parent="uIEQiHcA2IHjSNty9eRO-31">
          <mxGeometry width="180" height="40" as="geometry" />
        </mxCell>
        <mxCell id="uIEQiHcA2IHjSNty9eRO-33" value="6" style="shape=partialRectangle;html=1;whiteSpace=wrap;connectable=0;strokeColor=inherit;overflow=hidden;fillColor=none;top=0;left=0;bottom=0;right=0;pointerEvents=1;" vertex="1" parent="uIEQiHcA2IHjSNty9eRO-32">
          <mxGeometry width="60" height="40" as="geometry">
            <mxRectangle width="60" height="40" as="alternateBounds" />
          </mxGeometry>
        </mxCell>
        <mxCell id="uIEQiHcA2IHjSNty9eRO-34" value="28" style="shape=partialRectangle;html=1;whiteSpace=wrap;connectable=0;strokeColor=inherit;overflow=hidden;fillColor=none;top=0;left=0;bottom=0;right=0;pointerEvents=1;" vertex="1" parent="uIEQiHcA2IHjSNty9eRO-32">
          <mxGeometry x="60" width="60" height="40" as="geometry">
            <mxRectangle width="60" height="40" as="alternateBounds" />
          </mxGeometry>
        </mxCell>
        <mxCell id="uIEQiHcA2IHjSNty9eRO-35" value="496" style="shape=partialRectangle;html=1;whiteSpace=wrap;connectable=0;strokeColor=inherit;overflow=hidden;fillColor=none;top=0;left=0;bottom=0;right=0;pointerEvents=1;" vertex="1" parent="uIEQiHcA2IHjSNty9eRO-32">
          <mxGeometry x="120" width="60" height="40" as="geometry">
            <mxRectangle width="60" height="40" as="alternateBounds" />
          </mxGeometry>
        </mxCell>
        <mxCell id="uIEQiHcA2IHjSNty9eRO-36" value="" style="shape=table;startSize=0;container=1;collapsible=0;childLayout=tableLayout;" vertex="1" parent="1">
          <mxGeometry x="814" y="250" width="180" height="40" as="geometry" />
        </mxCell>
        <mxCell id="uIEQiHcA2IHjSNty9eRO-37" value="" style="shape=tableRow;horizontal=0;startSize=0;swimlaneHead=0;swimlaneBody=0;strokeColor=inherit;top=0;left=0;bottom=0;right=0;collapsible=0;dropTarget=0;fillColor=none;points=[[0,0.5],[1,0.5]];portConstraint=eastwest;" vertex="1" parent="uIEQiHcA2IHjSNty9eRO-36">
          <mxGeometry width="180" height="40" as="geometry" />
        </mxCell>
        <mxCell id="uIEQiHcA2IHjSNty9eRO-38" value="3" style="shape=partialRectangle;html=1;whiteSpace=wrap;connectable=0;strokeColor=inherit;overflow=hidden;fillColor=none;top=0;left=0;bottom=0;right=0;pointerEvents=1;" vertex="1" parent="uIEQiHcA2IHjSNty9eRO-37">
          <mxGeometry width="60" height="40" as="geometry">
            <mxRectangle width="60" height="40" as="alternateBounds" />
          </mxGeometry>
        </mxCell>
        <mxCell id="uIEQiHcA2IHjSNty9eRO-39" value="1" style="shape=partialRectangle;html=1;whiteSpace=wrap;connectable=0;strokeColor=inherit;overflow=hidden;fillColor=none;top=0;left=0;bottom=0;right=0;pointerEvents=1;" vertex="1" parent="uIEQiHcA2IHjSNty9eRO-37">
          <mxGeometry x="60" width="60" height="40" as="geometry">
            <mxRectangle width="60" height="40" as="alternateBounds" />
          </mxGeometry>
        </mxCell>
        <mxCell id="uIEQiHcA2IHjSNty9eRO-40" value="4" style="shape=partialRectangle;html=1;whiteSpace=wrap;connectable=0;strokeColor=inherit;overflow=hidden;fillColor=none;top=0;left=0;bottom=0;right=0;pointerEvents=1;" vertex="1" parent="uIEQiHcA2IHjSNty9eRO-37">
          <mxGeometry x="120" width="60" height="40" as="geometry">
            <mxRectangle width="60" height="40" as="alternateBounds" />
          </mxGeometry>
        </mxCell>
        <mxCell id="uIEQiHcA2IHjSNty9eRO-26" value="" style="shape=table;startSize=0;container=1;collapsible=0;childLayout=tableLayout;" vertex="1" parent="1">
          <mxGeometry x="414" y="250" width="180" height="40" as="geometry" />
        </mxCell>
        <mxCell id="uIEQiHcA2IHjSNty9eRO-27" value="" style="shape=tableRow;horizontal=0;startSize=0;swimlaneHead=0;swimlaneBody=0;strokeColor=inherit;top=0;left=0;bottom=0;right=0;collapsible=0;dropTarget=0;fillColor=none;points=[[0,0.5],[1,0.5]];portConstraint=eastwest;" vertex="1" parent="uIEQiHcA2IHjSNty9eRO-26">
          <mxGeometry width="180" height="40" as="geometry" />
        </mxCell>
        <mxCell id="uIEQiHcA2IHjSNty9eRO-28" value="2" style="shape=partialRectangle;html=1;whiteSpace=wrap;connectable=0;strokeColor=inherit;overflow=hidden;fillColor=none;top=0;left=0;bottom=0;right=0;pointerEvents=1;" vertex="1" parent="uIEQiHcA2IHjSNty9eRO-27">
          <mxGeometry width="60" height="40" as="geometry">
            <mxRectangle width="60" height="40" as="alternateBounds" />
          </mxGeometry>
        </mxCell>
        <mxCell id="uIEQiHcA2IHjSNty9eRO-29" value="4" style="shape=partialRectangle;html=1;whiteSpace=wrap;connectable=0;strokeColor=inherit;overflow=hidden;fillColor=none;top=0;left=0;bottom=0;right=0;pointerEvents=1;" vertex="1" parent="uIEQiHcA2IHjSNty9eRO-27">
          <mxGeometry x="60" width="60" height="40" as="geometry">
            <mxRectangle width="60" height="40" as="alternateBounds" />
          </mxGeometry>
        </mxCell>
        <mxCell id="uIEQiHcA2IHjSNty9eRO-30" value="8" style="shape=partialRectangle;html=1;whiteSpace=wrap;connectable=0;strokeColor=inherit;overflow=hidden;fillColor=none;top=0;left=0;bottom=0;right=0;pointerEvents=1;" vertex="1" parent="uIEQiHcA2IHjSNty9eRO-27">
          <mxGeometry x="120" width="60" height="40" as="geometry">
            <mxRectangle width="60" height="40" as="alternateBounds" />
          </mxGeometry>
        </mxCell>
        <mxCell id="uIEQiHcA2IHjSNty9eRO-41" style="edgeStyle=orthogonalEdgeStyle;rounded=0;orthogonalLoop=1;jettySize=auto;html=1;entryX=0.514;entryY=-0.018;entryDx=0;entryDy=0;entryPerimeter=0;" edge="1" parent="1" source="uIEQiHcA2IHjSNty9eRO-22" target="uIEQiHcA2IHjSNty9eRO-27">
          <mxGeometry relative="1" as="geometry" />
        </mxCell>
        <mxCell id="uIEQiHcA2IHjSNty9eRO-46" style="edgeStyle=orthogonalEdgeStyle;rounded=0;orthogonalLoop=1;jettySize=auto;html=1;entryX=0.504;entryY=-0.003;entryDx=0;entryDy=0;entryPerimeter=0;" edge="1" parent="1" source="uIEQiHcA2IHjSNty9eRO-21" target="uIEQiHcA2IHjSNty9eRO-32">
          <mxGeometry relative="1" as="geometry" />
        </mxCell>
        <mxCell id="uIEQiHcA2IHjSNty9eRO-47" style="edgeStyle=orthogonalEdgeStyle;rounded=0;orthogonalLoop=1;jettySize=auto;html=1;entryX=0.493;entryY=0.018;entryDx=0;entryDy=0;entryPerimeter=0;" edge="1" parent="1" source="uIEQiHcA2IHjSNty9eRO-22" target="uIEQiHcA2IHjSNty9eRO-37">
          <mxGeometry relative="1" as="geometry" />
        </mxCell>
        <mxCell id="uIEQiHcA2IHjSNty9eRO-48" value="&lt;div&gt;0&lt;/div&gt;" style="text;strokeColor=none;align=center;fillColor=none;html=1;verticalAlign=middle;whiteSpace=wrap;rounded=0;" vertex="1" parent="1">
          <mxGeometry x="620" y="110" width="60" height="30" as="geometry" />
        </mxCell>
        <mxCell id="uIEQiHcA2IHjSNty9eRO-49" value="1" style="text;strokeColor=none;align=center;fillColor=none;html=1;verticalAlign=middle;whiteSpace=wrap;rounded=0;" vertex="1" parent="1">
          <mxGeometry x="674" y="110" width="60" height="30" as="geometry" />
        </mxCell>
        <mxCell id="uIEQiHcA2IHjSNty9eRO-50" value="2" style="text;strokeColor=none;align=center;fillColor=none;html=1;verticalAlign=middle;whiteSpace=wrap;rounded=0;" vertex="1" parent="1">
          <mxGeometry x="734" y="110" width="60" height="30" as="geometry" />
        </mxCell>
        <mxCell id="uIEQiHcA2IHjSNty9eRO-51" value="&lt;div&gt;0&lt;/div&gt;" style="text;strokeColor=none;align=center;fillColor=none;html=1;verticalAlign=middle;whiteSpace=wrap;rounded=0;" vertex="1" parent="1">
          <mxGeometry x="417" y="300" width="60" height="30" as="geometry" />
        </mxCell>
        <mxCell id="uIEQiHcA2IHjSNty9eRO-52" value="1" style="text;strokeColor=none;align=center;fillColor=none;html=1;verticalAlign=middle;whiteSpace=wrap;rounded=0;" vertex="1" parent="1">
          <mxGeometry x="471" y="300" width="60" height="30" as="geometry" />
        </mxCell>
        <mxCell id="uIEQiHcA2IHjSNty9eRO-53" value="2" style="text;strokeColor=none;align=center;fillColor=none;html=1;verticalAlign=middle;whiteSpace=wrap;rounded=0;" vertex="1" parent="1">
          <mxGeometry x="531" y="300" width="60" height="30" as="geometry" />
        </mxCell>
        <mxCell id="uIEQiHcA2IHjSNty9eRO-54" value="&lt;div&gt;0&lt;/div&gt;" style="text;strokeColor=none;align=center;fillColor=none;html=1;verticalAlign=middle;whiteSpace=wrap;rounded=0;" vertex="1" parent="1">
          <mxGeometry x="617" y="300" width="60" height="30" as="geometry" />
        </mxCell>
        <mxCell id="uIEQiHcA2IHjSNty9eRO-55" value="1" style="text;strokeColor=none;align=center;fillColor=none;html=1;verticalAlign=middle;whiteSpace=wrap;rounded=0;" vertex="1" parent="1">
          <mxGeometry x="671" y="300" width="60" height="30" as="geometry" />
        </mxCell>
        <mxCell id="uIEQiHcA2IHjSNty9eRO-56" value="2" style="text;strokeColor=none;align=center;fillColor=none;html=1;verticalAlign=middle;whiteSpace=wrap;rounded=0;" vertex="1" parent="1">
          <mxGeometry x="731" y="300" width="60" height="30" as="geometry" />
        </mxCell>
        <mxCell id="uIEQiHcA2IHjSNty9eRO-57" value="&lt;div&gt;0&lt;/div&gt;" style="text;strokeColor=none;align=center;fillColor=none;html=1;verticalAlign=middle;whiteSpace=wrap;rounded=0;" vertex="1" parent="1">
          <mxGeometry x="820" y="300" width="60" height="30" as="geometry" />
        </mxCell>
        <mxCell id="uIEQiHcA2IHjSNty9eRO-58" value="1" style="text;strokeColor=none;align=center;fillColor=none;html=1;verticalAlign=middle;whiteSpace=wrap;rounded=0;" vertex="1" parent="1">
          <mxGeometry x="874" y="300" width="60" height="30" as="geometry" />
        </mxCell>
        <mxCell id="uIEQiHcA2IHjSNty9eRO-59" value="2" style="text;strokeColor=none;align=center;fillColor=none;html=1;verticalAlign=middle;whiteSpace=wrap;rounded=0;" vertex="1" parent="1">
          <mxGeometry x="934" y="300" width="60" height="30" as="geometry" />
        </mxCell>
      </root>
    </mxGraphModel>
  </diagram>
</mxfile>
